PathFileType	4	(X/Y/Z)	Patient4_TMGait_0pt4_01_left_31.trc.trc
DataRate	CameraRate	NumFrames	NumMarkers	Units	OrigDataRate	OrigDataStartFrame	OrigNumFrames
72.538860103627	72.538860103627	4	33	mm	72.538860103627	36	       141
Frame#	Time	Sacral			L.Shoulder			Chest			R.Shoulder			Neck			R.ASIS			L.ASIS			R.Thigh.Superior			R.Thigh.Lateral			R.Thigh.Inferior			R.Patella			L.Thigh.Superior			L.Thigh.Lateral			L.Thigh.Inferior			L.Patella			L.Shank.Superior			L.Shank.Lateral			L.Shank.Inferior			R.Shank.Superior			R.Shank.Lateral			R.Shank.Inferior			R.Heel			R.Midfoot.Superior			R.Midfoot.Lateral			R.Toe			L.Heel			L.Midfoot.Lateral			L.Midfoot.Superior			L.Toe			L.Elbow			L.Wrist			R.Elbow			R.Wrist			
		X1	Y1	Z1	X2	Y2	Z2	X3	Y3	Z3	X4	Y4	Z4	X5	Y5	Z5	X6	Y6	Z6	X7	Y7	Z7	X8	Y8	Z8	X9	Y9	Z9	X10	Y10	Z10	X11	Y11	Z11	X12	Y12	Z12	X13	Y13	Z13	X14	Y14	Z14	X15	Y15	Z15	X16	Y16	Z16	X17	Y17	Z17	X18	Y18	Z18	X19	Y19	Z19	X20	Y20	Z20	X21	Y21	Z21	X22	Y22	Z22	X23	Y23	Z23	X24	Y24	Z24	X25	Y25	Z25	X26	Y26	Z26	X27	Y27	Z27	X28	Y28	Z28	X29	Y29	Z29	X30	Y30	Z30	X31	Y31	Z31	X32	Y32	Z32	X33	Y33	Z33	

36	38.522500000000	923.198209811876	998.394103248004	525.520561218622	1064.869418746859	1433.025638860395	332.823287079579	1186.485845457927	1371.342399910586	483.022918087405	1116.255348272908	1441.333778327119	664.300196097411	1063.170464881726	1493.703926759597	488.621285273981	1160.785428213238	939.978118666669	623.367073978135	1127.089143297539	965.063469514263	352.038725771085	1175.104757991579	727.604818952907	599.642370003794	1083.157263125710	625.789660272613	665.566598496944	1151.898932220806	562.160162287133	588.163507134942	1138.373108981515	462.002784642434	603.736845424316	1202.134770081191	764.667946067091	385.580769601590	1134.169314929319	637.208353683979	322.460121085114	1229.178868056864	570.804341191318	385.664375162243	1239.438306419489	499.490054695032	392.707432472941	1214.717503244336	425.127177736271	383.173774587344	1131.673648673857	308.642016109940	327.841586270161	1185.928239242943	196.593896675128	394.280168346289	1075.438519818539	388.195623047444	611.129846288893	970.270868956705	319.294217592236	674.268721541735	977.089534313645	212.593415209168	617.459472966157	797.527759842668	85.964214038155	590.830833563325	973.055270799876	100.374814339107	627.573488065168	875.531282793096	57.532767598328	664.746851537363	1079.910916290674	37.760191062594	658.954043321501	1062.638905866430	39.185559844726	429.283636953507	1136.743640669241	37.521762771235	349.257399319072	1220.140474102499	97.688483187010	377.396357874979	1348.285341090777	44.792626308962	347.422458757495	1006.231422806507	1085.811717122529	218.027298077983	1083.657261034293	838.427809479419	174.252606584757	1118.524516333728	1102.189023307128	802.133853026226	1295.569631437465	918.178873458679	761.876685877939	
37	38.536285714286	922.608309177219	998.879350844842	521.673617669556	1066.380616061180	1433.638312827400	329.796429167935	1186.946508741165	1371.607519762111	480.629126821616	1115.800500551804	1441.652997901107	661.524830864517	1063.707765296007	1494.131889989929	485.637330651213	1159.972658340720	940.435107606286	620.554401900748	1127.448165112716	965.480490805282	349.128370310403	1178.265097905338	728.836499221516	597.330473141047	1089.089306008832	625.742405262684	663.852346885212	1159.730548346450	562.870789489552	586.832270469522	1147.706607120015	461.205795833133	604.130246615305	1201.411065896204	764.135918566826	382.202138037482	1131.759545957802	636.923722450987	320.381159307358	1226.463253766906	570.040074267715	383.269356511836	1236.236511049389	498.938279686441	391.049007921028	1211.238230962431	424.573383349560	381.835148106420	1127.750514597150	308.289292989169	326.837819287714	1181.212004300326	196.316122769925	393.922966660721	1082.418536195064	388.318109423332	611.309597748088	974.710611624853	322.932504244622	673.844415842423	979.080080025059	215.629315809249	618.140145922139	795.731143687654	95.292776337354	591.556355582904	971.604543749395	101.844450915249	628.542884992607	872.285289110002	62.871286844132	665.109711057024	1074.748465339574	37.387053559764	658.860704366320	1057.130447478068	39.141585866693	429.245396964914	1131.216615131077	37.432800376216	349.178900408667	1214.647601801279	97.619471079334	377.325500744374	1342.814181402178	44.567212426407	347.354857327009	1008.962061204606	1086.386064734056	214.064296188785	1091.295809115699	840.328848631298	171.206983188214	1113.365287015663	1102.177910274514	798.540520044236	1285.392787048579	912.616159855486	760.978316462856	
38	38.550071428571	921.792243259140	999.164053543555	517.833017512878	1067.938989437656	1434.085227607800	326.794072909247	1187.322639263442	1371.660428599644	478.333966013521	1115.162673160651	1441.760098540553	658.809836273133	1064.193667824100	1494.393418092057	482.690107850542	1158.941935685640	940.683702514142	617.816547452776	1127.647574007955	965.741263958823	346.260261715852	1181.865888779017	730.223742639510	594.964250899314	1095.873015111951	625.701188755674	662.223334967585	1168.470074680575	563.785139768392	585.512479998155	1158.032884317806	460.712051549870	604.382930355929	1200.418157471400	763.432916767773	378.922403083610	1129.295561344325	636.603077680816	318.170637122788	1223.566105621093	569.242953860660	380.932589595743	1232.823909965158	498.315929846667	389.308306943507	1207.572178872804	423.937446337990	380.379890178857	1123.631714815370	307.828511876079	325.767691596431	1176.358646903049	195.983070727076	393.528094311099	1090.529633468233	388.624978977289	611.422029086495	980.369574444536	326.936867771809	673.439048170483	982.067920350298	219.143267567912	618.814057290910	794.984321957784	105.976074014921	592.295913202733	970.832066847629	103.744929656072	629.594895180958	869.685953116173	69.309231130654	665.523770710624	1069.586518120418	36.884020905154	658.749208580416	1051.545552705425	39.044558568546	429.214003976373	1125.607645410468	37.300740349586	349.088496758064	1209.067299345766	97.504251260640	377.257826360948	1337.266931160880	44.345581865175	347.301458940092	1011.673260591147	1086.854363415307	209.984090836250	1099.372697816639	842.381949344626	168.111982045120	1107.959923111335	1102.015105388242	794.949060968926	1274.647933838491	906.854103198579	760.403637879408	
39	38.563857142857	920.772750299323	999.230573076185	514.055107812368	1069.495316672244	1434.337890867386	323.843555359076	1187.595728025323	1371.486262282988	476.148896524549	1114.352614048906	1441.652603752802	656.174514972778	1064.618739011565	1494.479863802201	479.799923813339	1157.698759251612	940.714713437389	615.174772244464	1127.668594336580	965.844911580509	343.447301954194	1185.831272248466	731.815306917647	592.551008532490	1103.394954101494	625.745290202484	660.663732396495	1177.981763666871	564.989308124482	584.194890121446	1169.221916949100	460.621711180838	604.422402162867	1199.202983650805	762.628342906912	375.812909965621	1126.886632974152	636.271156865785	315.849362471872	1220.589972944680	568.443063927074	378.684924505016	1229.305314399868	497.640519680861	387.518693684853	1203.817184870712	423.232212396137	378.838989634829	1119.415945324515	307.288974256513	324.636123833517	1171.425914574273	195.607376416435	393.101125280066	1099.670844860204	389.192988030689	611.390854758605	987.204853389109	331.329759921092	673.018875910930	986.038901572667	223.177376657832	619.425675695846	795.412371142993	118.020298506702	593.002221297576	970.750912665587	106.159419739594	630.661190514768	867.837466290623	76.934639864072	665.960029660241	1064.444450923256	36.204250898353	658.633320982765	1045.917684295300	38.913079012650	429.176257941874	1119.953772384771	37.143491072439	348.978906035829	1203.434524999325	97.362969065966	377.184600554870	1331.678431609859	44.145423767309	347.253560906309	1014.441318576824	1087.178778210373	205.795069745732	1107.868947864273	844.548501613503	164.991083948076	1102.267526561587	1101.688013455153	791.368804444223	1263.318854356384	900.955218922202	760.160205612801	
